<svg xmlns="http://www.w3.org/2000/svg" width="1921" height="449.01" viewBox="0 0 1921 449.01">
  <g id="Group_7" data-name="Group 7" transform="translate(-513.74 -159.624)" opacity="1">
    <path id="Path_2340" data-name="Path 2340" d="M781.588,591.75V420.788H610.025V591.75H514.24V161.923h95.785V330.459H781.588V161.923h96.4V591.75Z" transform="translate(0 7.29)" fill="none" stroke="#323a40" stroke-width="1"/>
    <path id="Path_2341" data-name="Path 2341" d="M605.2,591.75V161.923H877.4v90.333H700.984V334.1H861.028v84.271H700.984v82.447H878V591.75Z" transform="translate(368.585 7.29)" fill="none" stroke="#323a40" stroke-width="1"/>
    <path id="Path_2342" data-name="Path 2342" d="M675.758,591.75V161.923h95.785V500.209H957.055V591.75Z" transform="translate(654.504 7.29)" fill="none" stroke="#323a40" stroke-width="1"/>
    <path id="Path_2343" data-name="Path 2343" d="M744.276,591.75V161.923h95.79V500.209h185.506V591.75Z" transform="translate(932.153 7.29)" fill="none" stroke="#323a40" stroke-width="1"/>
    <path id="Path_2344" data-name="Path 2344" d="M1029.537,160.124c120.647,0,223.1,87.9,223.1,224.3,0,135.8-102.448,223.707-223.1,223.707-121.248,0-223.7-87.908-223.7-223.707C805.836,248.027,908.29,160.124,1029.537,160.124Zm0,353.437c59.414,0,123.678-40.013,123.678-129.736s-64.264-130.342-123.678-130.342c-60.015,0-124.274,40.62-124.274,130.342S969.522,513.561,1029.537,513.561Z" transform="translate(1181.607 0)" fill="none" stroke="#323a40" stroke-width="1"/>
  </g>
</svg>
