<svg xmlns="http://www.w3.org/2000/svg" width="1920" height="290.347" viewBox="0 0 1920 290.347">
  <path id="Path_2495" data-name="Path 2495" d="M67.69,60.7V162.688h-56.4V-118.546h112.03q48.482,0,76.3,24.724T227.43-28.729q0,40.37-27.814,64.9T123.319,60.7Zm0-43.46h55.629q23.565,0,35.734-12.845t12.169-32.74q0-20.281-12.072-33.512t-35.83-13.231H67.69ZM325.36,50.272V162.688h-56.4V-118.546H375q48.1,0,75.234,21.923t27.138,61.134q0,21.827-11.4,37.472t-33.416,25.3q24.917,7.34,35.83,24.531T479.3,94.311v20.668a102.239,102.239,0,0,0,3.187,24.627q3.187,12.845,10.913,19.026v4.056h-58.14q-7.726-6.181-10.044-20.668a173.916,173.916,0,0,1-2.318-27.428V94.7q0-21.054-11.493-32.74T379.057,50.272Zm0-43.46h48.675q23.758,0,35.444-10.044t11.686-29.746q0-19.316-11.686-30.712T375-75.086H325.36ZM756.676,47.374q0,51.766-32.74,85.568t-85.085,33.8q-51.959,0-84.409-33.8t-32.45-85.568V-3.232q0-51.573,32.354-85.471t84.312-33.9q52.345,0,85.182,33.9T756.676-3.232Zm-56.4-50.848q0-32.9-16.418-53.995t-45.2-21.095q-28.78,0-44.619,21T578.2-3.474v51.09q0,33.479,16.032,54.574t44.619,21.095q28.973,0,45.2-21.095t16.225-54.574ZM918.54-118.546h56.208V78.279q0,40.756-26.559,64.611t-67.122,23.855q-44.039,0-69.729-21.44T786.615,82.142L787,80.983h54.856q0,22.113,10.624,32.207t28.587,10.094q15.646,0,26.559-12.063t10.913-33.1ZM1199.388,39.069H1082.916v80.16H1219.09v43.46H1026.514V-118.546H1218.7v43.46H1082.916V-4.391h116.473Zm266.555,27.814.386,1.159q.773,45.392-27.718,72.047t-79.1,26.655q-50.8,0-82.477-32.643T1245.36,50.078V-5.743q0-51.186,30.9-84.023t80.353-32.836q52.152,0,81.512,26.752t28.587,72.916l-.386,1.159h-54.856q0-27.814-13.328-42.591t-41.529-14.776q-25.3,0-40.176,20.551T1301.568-6.2V49.955q0,32.227,15.646,52.778t42.3,20.551q26.462,0,39.114-14.2t12.652-42.2Zm228.31-141.969h-79.58V162.688h-56.4V-75.086h-79.194v-43.46h215.175ZM1873.887,89.289q0-16.225-11.493-26.076T1822.122,44.67q-50.22-14.487-75.91-34.382t-25.69-54.47q0-34.575,29.456-56.5t75.234-21.923q46.357,0,75.524,24.627t28.2,60.747l-.386,1.159h-54.663q0-19.509-13.038-31.581t-36.6-12.072q-22.6,0-34.961,10.044t-12.362,25.69q0,14.294,13.231,23.468t45.681,19.412q46.55,12.941,70.5,34.189T1930.289,88.9q0,36.12-28.49,56.981t-75.234,20.861q-45.971,0-80.16-23.662t-33.223-66.349l.386-1.159h54.856q0,25.11,15.356,36.8t42.784,11.686q22.985,0,35.154-9.465T1873.887,89.289Z" transform="translate(-10.789 123.103)" fill="none" stroke="#323a40" stroke-width="1"/>
</svg>
